<svg width="109" height="95" viewBox="0 0 109 95" fill="none" xmlns="http://www.w3.org/2000/svg">
<path d="M97.875 21.75C91.8675 21.75 87 26.6211 87 32.625C87 34.1475 87.319 35.5912 87.8818 36.9088L72.5 43.5L59.6322 20.3408C62.9663 18.4793 65.25 14.9604 65.25 10.875C65.25 4.87109 60.3825 0 54.375 0C48.3675 0 43.5 4.87109 43.5 10.875C43.5 14.9604 45.7838 18.4793 49.1178 20.3408L36.25 43.5L20.8682 36.9088C21.431 35.5912 21.75 34.1475 21.75 32.625C21.75 26.6211 16.8825 21.75 10.875 21.75C4.86747 21.75 0 26.6211 0 32.625C0 38.6289 4.86747 43.5 10.875 43.5C11.7178 43.5 12.528 43.3795 13.3173 43.2028L21.75 79.75V87C21.75 91.0074 24.9962 94.25 29 94.25H79.75C83.7538 94.25 87 91.0074 87 87V79.75L95.4363 43.2028C96.222 43.3867 97.0322 43.5 97.875 43.5C103.883 43.5 108.75 38.6289 108.75 32.625C108.75 26.6211 103.883 21.75 97.875 21.75ZM10.875 36.25C8.87491 36.25 7.25 34.6215 7.25 32.625C7.25 30.6285 8.87491 29 10.875 29C12.8751 29 14.5 30.6285 14.5 32.625C14.5 34.6215 12.8751 36.25 10.875 36.25ZM54.375 7.25C56.3751 7.25 58 8.87853 58 10.875C58 12.8715 56.3751 14.5 54.375 14.5C52.3749 14.5 50.75 12.8715 50.75 10.875C50.75 8.87853 52.3749 7.25 54.375 7.25ZM79.75 87H29V79.75H79.75V87ZM81.2299 72.5H27.5201L21.1519 44.9165L33.3935 50.1627C34.3206 50.5588 35.2903 50.75 36.2464 50.75C38.8092 50.75 41.2733 49.3906 42.5865 47.019L54.375 25.8073L66.1635 47.019C67.4767 49.3906 69.9408 50.75 72.5036 50.75C73.4597 50.75 74.4294 50.5588 75.3565 50.1627L87.5981 44.9165L81.2299 72.5ZM97.875 36.25C95.8749 36.25 94.25 34.6215 94.25 32.625C94.25 30.6285 95.8749 29 97.875 29C99.8751 29 101.5 30.6285 101.5 32.625C101.5 34.6215 99.8751 36.25 97.875 36.25Z" fill="white"/>
</svg>
