<svg width="110" height="104" viewBox="0 0 110 104" fill="none" xmlns="http://www.w3.org/2000/svg">
<path d="M54.4206 58.3654C70.5585 58.3654 83.6482 45.2758 83.6482 29.1379C83.6482 13 70.5585 0 54.4206 0C38.2827 0 25.1931 13.0896 25.1931 29.1379C25.1931 45.1861 38.2827 58.3654 54.4206 58.3654ZM54.4206 7.62067C66.2551 7.62067 75.9378 17.3034 75.9378 29.1379C75.9378 40.9723 66.2551 50.6551 54.4206 50.6551C42.5862 50.6551 32.9034 40.9723 32.9034 29.1379C32.9034 17.3034 42.5862 7.62067 54.4206 7.62067Z" fill="#987B67"/>
<path d="M3.85516 104H105.345C107.496 104 109.2 102.297 109.2 100.145C109.2 79.9725 92.7929 63.476 72.5309 63.476H36.6689C16.4965 63.476 0 79.8828 0 100.145C0 102.297 1.70344 104 3.85516 104ZM36.6689 71.1863H72.5309C87.2343 71.1863 99.3377 82.1242 101.22 96.2897H7.97929C9.86205 82.2138 21.9655 71.1863 36.6689 71.1863Z" fill="#987B67"/>
</svg>
